<mxfile host="app.diagrams.net" modified="2022-09-28T02:10:17.007Z" agent="5.0 (Windows NT 10.0; Win64; x64) AppleWebKit/537.36 (KHTML, like Gecko) Chrome/105.0.0.0 Safari/537.36" etag="9eciKzaorRRVIXhIqCGp" version="20.3.6" type="github">
  <diagram id="C5RBs43oDa-KdzZeNtuy" name="Page-1">
    <mxGraphModel dx="3076" dy="706" grid="0" gridSize="10" guides="1" tooltips="1" connect="1" arrows="1" fold="1" page="1" pageScale="1" pageWidth="827" pageHeight="1169" math="0" shadow="0">
      <root>
        <mxCell id="WIyWlLk6GJQsqaUBKTNV-0" />
        <mxCell id="WIyWlLk6GJQsqaUBKTNV-1" parent="WIyWlLk6GJQsqaUBKTNV-0" />
        <mxCell id="B7HNf2a2jgd1WP8cKd5H-3" value="" style="edgeStyle=orthogonalEdgeStyle;rounded=0;orthogonalLoop=1;jettySize=auto;html=1;fontColor=#000000;strokeColor=#339AF0;strokeWidth=2;fontFamily=Comic Sans MS;fontSize=15;fontStyle=2" parent="WIyWlLk6GJQsqaUBKTNV-1" source="B7HNf2a2jgd1WP8cKd5H-0" target="B7HNf2a2jgd1WP8cKd5H-2" edge="1">
          <mxGeometry relative="1" as="geometry" />
        </mxCell>
        <mxCell id="B7HNf2a2jgd1WP8cKd5H-0" value="&lt;font style=&quot;font-size: 15px;&quot;&gt;SessionDispatcherLeaderProcess.&lt;br style=&quot;font-size: 15px;&quot;&gt;createDispatcherBasedOnRecovered&lt;br style=&quot;font-size: 15px;&quot;&gt;JobGraphsAndRecoveredDirtyJobResults()&lt;/font&gt;" style="rounded=1;whiteSpace=wrap;html=1;align=left;fillColor=#FFFFFF;strokeColor=#339AF0;strokeWidth=2;fontFamily=Comic Sans MS;fontSize=15;fontColor=#000000;arcSize=8;fontStyle=2" parent="WIyWlLk6GJQsqaUBKTNV-1" vertex="1">
          <mxGeometry x="120" y="60" width="250" height="70" as="geometry" />
        </mxCell>
        <mxCell id="B7HNf2a2jgd1WP8cKd5H-6" value="" style="edgeStyle=orthogonalEdgeStyle;rounded=0;orthogonalLoop=1;jettySize=auto;html=1;fontColor=#000000;strokeColor=#339AF0;strokeWidth=2;fontFamily=Comic Sans MS;fontSize=15;fontStyle=2" parent="WIyWlLk6GJQsqaUBKTNV-1" source="B7HNf2a2jgd1WP8cKd5H-2" target="B7HNf2a2jgd1WP8cKd5H-5" edge="1">
          <mxGeometry relative="1" as="geometry" />
        </mxCell>
        <mxCell id="B7HNf2a2jgd1WP8cKd5H-2" value="&lt;font style=&quot;font-size: 15px;&quot;&gt;SessionDispatcherLeaderProcess.&lt;br style=&quot;font-size: 15px;&quot;&gt;recoverJobsIfRunning()&lt;br style=&quot;font-size: 15px;&quot;&gt;&lt;/font&gt;" style="rounded=1;whiteSpace=wrap;html=1;align=left;fillColor=#FFFFFF;strokeColor=#339AF0;strokeWidth=2;fontFamily=Comic Sans MS;fontSize=15;fontColor=#000000;arcSize=8;fontStyle=2" parent="WIyWlLk6GJQsqaUBKTNV-1" vertex="1">
          <mxGeometry x="120" y="210" width="250" height="70" as="geometry" />
        </mxCell>
        <mxCell id="B7HNf2a2jgd1WP8cKd5H-8" value="" style="edgeStyle=orthogonalEdgeStyle;rounded=0;orthogonalLoop=1;jettySize=auto;html=1;fontColor=#000000;strokeColor=#339AF0;strokeWidth=2;fontFamily=Comic Sans MS;fontSize=15;fontStyle=2" parent="WIyWlLk6GJQsqaUBKTNV-1" source="B7HNf2a2jgd1WP8cKd5H-5" target="B7HNf2a2jgd1WP8cKd5H-7" edge="1">
          <mxGeometry relative="1" as="geometry" />
        </mxCell>
        <mxCell id="B7HNf2a2jgd1WP8cKd5H-5" value="&lt;font style=&quot;font-size: 15px;&quot;&gt;SessionDispatcherLeaderProcess.&lt;br style=&quot;font-size: 15px;&quot;&gt;createDispatcherIfRunning()&lt;br style=&quot;font-size: 15px;&quot;&gt;&lt;/font&gt;" style="rounded=1;whiteSpace=wrap;html=1;align=left;fillColor=#FFFFFF;strokeColor=#339AF0;strokeWidth=2;fontFamily=Comic Sans MS;fontSize=15;fontColor=#000000;arcSize=8;fontStyle=2" parent="WIyWlLk6GJQsqaUBKTNV-1" vertex="1">
          <mxGeometry x="120" y="360" width="250" height="70" as="geometry" />
        </mxCell>
        <mxCell id="B7HNf2a2jgd1WP8cKd5H-10" value="" style="edgeStyle=orthogonalEdgeStyle;rounded=0;orthogonalLoop=1;jettySize=auto;html=1;fontColor=#000000;strokeColor=#339AF0;strokeWidth=2;fontFamily=Comic Sans MS;fontSize=15;fontStyle=2" parent="WIyWlLk6GJQsqaUBKTNV-1" source="B7HNf2a2jgd1WP8cKd5H-7" target="B7HNf2a2jgd1WP8cKd5H-9" edge="1">
          <mxGeometry relative="1" as="geometry" />
        </mxCell>
        <mxCell id="B7HNf2a2jgd1WP8cKd5H-7" value="&lt;font style=&quot;font-size: 15px;&quot;&gt;SessionDispatcherLeaderProcess.&lt;br style=&quot;font-size: 15px;&quot;&gt;createDispatcher()&lt;br style=&quot;font-size: 15px;&quot;&gt;&lt;/font&gt;" style="rounded=1;whiteSpace=wrap;html=1;align=left;fillColor=#FFFFFF;strokeColor=#339AF0;strokeWidth=2;fontFamily=Comic Sans MS;fontSize=15;fontColor=#000000;arcSize=8;fontStyle=2" parent="WIyWlLk6GJQsqaUBKTNV-1" vertex="1">
          <mxGeometry x="120" y="510" width="250" height="70" as="geometry" />
        </mxCell>
        <mxCell id="B7HNf2a2jgd1WP8cKd5H-12" value="" style="edgeStyle=orthogonalEdgeStyle;rounded=0;orthogonalLoop=1;jettySize=auto;html=1;fontColor=#000000;strokeColor=#339AF0;strokeWidth=2;fontFamily=Comic Sans MS;fontSize=15;fontStyle=2" parent="WIyWlLk6GJQsqaUBKTNV-1" source="B7HNf2a2jgd1WP8cKd5H-9" target="B7HNf2a2jgd1WP8cKd5H-11" edge="1">
          <mxGeometry relative="1" as="geometry" />
        </mxCell>
        <mxCell id="B7HNf2a2jgd1WP8cKd5H-9" value="&lt;font style=&quot;font-size: 13px;&quot;&gt;ApplicationDispatcherGatewayServiceFactory.&lt;br style=&quot;font-size: 13px;&quot;&gt;create()&lt;br style=&quot;font-size: 13px;&quot;&gt;&lt;/font&gt;" style="rounded=1;whiteSpace=wrap;html=1;align=left;fillColor=#FFFFFF;strokeColor=#339AF0;strokeWidth=2;fontFamily=Comic Sans MS;fontSize=13;fontColor=#000000;arcSize=8;fontStyle=2" parent="WIyWlLk6GJQsqaUBKTNV-1" vertex="1">
          <mxGeometry x="120" y="660" width="250" height="70" as="geometry" />
        </mxCell>
        <mxCell id="B7HNf2a2jgd1WP8cKd5H-14" value="" style="edgeStyle=orthogonalEdgeStyle;rounded=0;orthogonalLoop=1;jettySize=auto;html=1;fontColor=#000000;strokeColor=#339AF0;strokeWidth=2;fontFamily=Comic Sans MS;fontSize=15;fontStyle=2" parent="WIyWlLk6GJQsqaUBKTNV-1" source="B7HNf2a2jgd1WP8cKd5H-11" target="B7HNf2a2jgd1WP8cKd5H-13" edge="1">
          <mxGeometry relative="1" as="geometry" />
        </mxCell>
        <mxCell id="AwBQZsJ90LAnf3Yeg7cW-4" style="edgeStyle=orthogonalEdgeStyle;shape=connector;rounded=1;orthogonalLoop=1;jettySize=auto;html=1;exitX=1;exitY=0.5;exitDx=0;exitDy=0;entryX=1;entryY=0.5;entryDx=0;entryDy=0;labelBackgroundColor=default;strokeColor=#339AF0;strokeWidth=2;fontFamily=Comic Sans MS;fontSize=15;fontColor=#000000;endArrow=classic;fontStyle=2" parent="WIyWlLk6GJQsqaUBKTNV-1" source="B7HNf2a2jgd1WP8cKd5H-11" target="AwBQZsJ90LAnf3Yeg7cW-0" edge="1">
          <mxGeometry relative="1" as="geometry" />
        </mxCell>
        <mxCell id="B7HNf2a2jgd1WP8cKd5H-11" value="&lt;font style=&quot;font-size: 15px;&quot;&gt;SessionDispatcherFactory.&lt;br style=&quot;font-size: 15px;&quot;&gt;createDispatcher()&lt;br style=&quot;font-size: 15px;&quot;&gt;&lt;/font&gt;" style="rounded=1;whiteSpace=wrap;html=1;align=left;fillColor=#FFFFFF;strokeColor=#339AF0;strokeWidth=2;fontFamily=Comic Sans MS;fontSize=15;fontColor=#000000;arcSize=8;fontStyle=2" parent="WIyWlLk6GJQsqaUBKTNV-1" vertex="1">
          <mxGeometry x="120" y="810" width="250" height="70" as="geometry" />
        </mxCell>
        <mxCell id="B7HNf2a2jgd1WP8cKd5H-16" value="" style="edgeStyle=orthogonalEdgeStyle;rounded=0;orthogonalLoop=1;jettySize=auto;html=1;fontColor=#000000;strokeColor=#339AF0;strokeWidth=2;fontFamily=Comic Sans MS;fontSize=15;fontStyle=2" parent="WIyWlLk6GJQsqaUBKTNV-1" source="B7HNf2a2jgd1WP8cKd5H-13" target="B7HNf2a2jgd1WP8cKd5H-15" edge="1">
          <mxGeometry relative="1" as="geometry" />
        </mxCell>
        <mxCell id="B7HNf2a2jgd1WP8cKd5H-13" value="&lt;font style=&quot;font-size: 15px;&quot;&gt;new&amp;nbsp; StandaloneDispatcher()&lt;br style=&quot;font-size: 15px;&quot;&gt;&amp;nbsp;&lt;br style=&quot;font-size: 15px;&quot;&gt;&lt;/font&gt;" style="rounded=1;whiteSpace=wrap;html=1;align=left;fillColor=#FFFFFF;strokeColor=#339AF0;strokeWidth=2;fontFamily=Comic Sans MS;fontSize=15;fontColor=#000000;arcSize=8;fontStyle=2" parent="WIyWlLk6GJQsqaUBKTNV-1" vertex="1">
          <mxGeometry x="120" y="960" width="250" height="70" as="geometry" />
        </mxCell>
        <mxCell id="B7HNf2a2jgd1WP8cKd5H-18" value="" style="edgeStyle=orthogonalEdgeStyle;rounded=0;orthogonalLoop=1;jettySize=auto;html=1;fontColor=#000000;strokeColor=#339AF0;strokeWidth=2;fontFamily=Comic Sans MS;fontSize=15;fontStyle=2" parent="WIyWlLk6GJQsqaUBKTNV-1" source="B7HNf2a2jgd1WP8cKd5H-15" target="B7HNf2a2jgd1WP8cKd5H-17" edge="1">
          <mxGeometry relative="1" as="geometry" />
        </mxCell>
        <mxCell id="B7HNf2a2jgd1WP8cKd5H-15" value="&lt;font style=&quot;font-size: 15px;&quot;&gt;Dispatcher.onStart()&lt;br style=&quot;font-size: 15px;&quot;&gt;&lt;/font&gt;" style="rounded=1;whiteSpace=wrap;html=1;align=left;fillColor=#FFFFFF;strokeColor=#339AF0;strokeWidth=2;fontFamily=Comic Sans MS;fontSize=15;fontColor=#000000;arcSize=8;fontStyle=2" parent="WIyWlLk6GJQsqaUBKTNV-1" vertex="1">
          <mxGeometry x="120" y="1110" width="250" height="70" as="geometry" />
        </mxCell>
        <mxCell id="B7HNf2a2jgd1WP8cKd5H-20" value="" style="edgeStyle=orthogonalEdgeStyle;rounded=0;orthogonalLoop=1;jettySize=auto;html=1;fontColor=#000000;strokeColor=#339AF0;strokeWidth=2;fontFamily=Comic Sans MS;fontSize=15;fontStyle=2" parent="WIyWlLk6GJQsqaUBKTNV-1" source="B7HNf2a2jgd1WP8cKd5H-17" target="B7HNf2a2jgd1WP8cKd5H-19" edge="1">
          <mxGeometry relative="1" as="geometry" />
        </mxCell>
        <mxCell id="B7HNf2a2jgd1WP8cKd5H-17" value="&lt;font style=&quot;font-size: 15px;&quot;&gt;Dispatcher.startRecoveredJobs()&lt;br style=&quot;font-size: 15px;&quot;&gt;&lt;/font&gt;" style="rounded=1;whiteSpace=wrap;html=1;align=left;fillColor=#FFFFFF;strokeColor=#339AF0;strokeWidth=2;fontFamily=Comic Sans MS;fontSize=15;fontColor=#000000;arcSize=8;fontStyle=2" parent="WIyWlLk6GJQsqaUBKTNV-1" vertex="1">
          <mxGeometry x="450" y="1110" width="250" height="70" as="geometry" />
        </mxCell>
        <mxCell id="B7HNf2a2jgd1WP8cKd5H-22" value="" style="edgeStyle=orthogonalEdgeStyle;rounded=0;orthogonalLoop=1;jettySize=auto;html=1;fontColor=#000000;strokeColor=#339AF0;strokeWidth=2;fontFamily=Comic Sans MS;fontSize=15;fontStyle=2" parent="WIyWlLk6GJQsqaUBKTNV-1" source="B7HNf2a2jgd1WP8cKd5H-19" target="B7HNf2a2jgd1WP8cKd5H-21" edge="1">
          <mxGeometry relative="1" as="geometry" />
        </mxCell>
        <mxCell id="B7HNf2a2jgd1WP8cKd5H-19" value="&lt;font style=&quot;font-size: 15px;&quot;&gt;Dispatcher.runRecoveredJob()&lt;br style=&quot;font-size: 15px;&quot;&gt;&lt;/font&gt;" style="rounded=1;whiteSpace=wrap;html=1;align=left;fillColor=#FFFFFF;strokeColor=#339AF0;strokeWidth=2;fontFamily=Comic Sans MS;fontSize=15;fontColor=#000000;arcSize=8;fontStyle=2" parent="WIyWlLk6GJQsqaUBKTNV-1" vertex="1">
          <mxGeometry x="450" y="960" width="250" height="70" as="geometry" />
        </mxCell>
        <mxCell id="B7HNf2a2jgd1WP8cKd5H-24" value="" style="edgeStyle=orthogonalEdgeStyle;rounded=0;orthogonalLoop=1;jettySize=auto;html=1;fontColor=#000000;strokeColor=#339AF0;strokeWidth=2;fontFamily=Comic Sans MS;fontSize=15;fontStyle=2" parent="WIyWlLk6GJQsqaUBKTNV-1" source="B7HNf2a2jgd1WP8cKd5H-21" target="B7HNf2a2jgd1WP8cKd5H-23" edge="1">
          <mxGeometry relative="1" as="geometry" />
        </mxCell>
        <mxCell id="B7HNf2a2jgd1WP8cKd5H-21" value="&lt;font style=&quot;font-size: 15px;&quot;&gt;Dispatcher.runJob(createJobMasterRunner()&lt;br style=&quot;font-size: 15px;&quot;&gt;&lt;/font&gt;" style="rounded=1;whiteSpace=wrap;html=1;align=left;fillColor=#FFFFFF;strokeColor=#339AF0;strokeWidth=2;fontFamily=Comic Sans MS;fontSize=15;fontColor=#000000;arcSize=8;fontStyle=2" parent="WIyWlLk6GJQsqaUBKTNV-1" vertex="1">
          <mxGeometry x="450" y="810" width="250" height="70" as="geometry" />
        </mxCell>
        <mxCell id="B7HNf2a2jgd1WP8cKd5H-26" value="" style="edgeStyle=orthogonalEdgeStyle;rounded=0;orthogonalLoop=1;jettySize=auto;html=1;fontColor=#000000;strokeColor=#339AF0;strokeWidth=2;fontFamily=Comic Sans MS;fontSize=15;fontStyle=2" parent="WIyWlLk6GJQsqaUBKTNV-1" source="B7HNf2a2jgd1WP8cKd5H-23" target="B7HNf2a2jgd1WP8cKd5H-25" edge="1">
          <mxGeometry relative="1" as="geometry" />
        </mxCell>
        <mxCell id="B7HNf2a2jgd1WP8cKd5H-23" value="&lt;font style=&quot;font-size: 15px;&quot;&gt;JobMasterServiceLeadershipRunnerFactory.&lt;br style=&quot;font-size: 15px;&quot;&gt;createJobManagerRunner()&lt;br style=&quot;font-size: 15px;&quot;&gt;&lt;/font&gt;" style="rounded=1;whiteSpace=wrap;html=1;align=left;fillColor=#FFFFFF;strokeColor=#339AF0;strokeWidth=2;fontFamily=Comic Sans MS;fontSize=15;fontColor=#000000;arcSize=8;fontStyle=2" parent="WIyWlLk6GJQsqaUBKTNV-1" vertex="1">
          <mxGeometry x="450" y="660" width="250" height="70" as="geometry" />
        </mxCell>
        <mxCell id="B7HNf2a2jgd1WP8cKd5H-28" value="" style="edgeStyle=orthogonalEdgeStyle;rounded=0;orthogonalLoop=1;jettySize=auto;html=1;fontColor=#000000;strokeColor=#339AF0;strokeWidth=2;fontFamily=Comic Sans MS;fontSize=15;fontStyle=2" parent="WIyWlLk6GJQsqaUBKTNV-1" source="B7HNf2a2jgd1WP8cKd5H-25" target="B7HNf2a2jgd1WP8cKd5H-27" edge="1">
          <mxGeometry relative="1" as="geometry" />
        </mxCell>
        <mxCell id="B7HNf2a2jgd1WP8cKd5H-25" value="&lt;font style=&quot;font-size: 15px;&quot;&gt;new JobMasterServiceLeadershipRunner&lt;br style=&quot;font-size: 15px;&quot;&gt;&lt;/font&gt;" style="rounded=1;whiteSpace=wrap;html=1;align=left;fillColor=#FFFFFF;strokeColor=#339AF0;strokeWidth=2;fontFamily=Comic Sans MS;fontSize=15;fontColor=#000000;arcSize=8;fontStyle=2" parent="WIyWlLk6GJQsqaUBKTNV-1" vertex="1">
          <mxGeometry x="450" y="510" width="250" height="70" as="geometry" />
        </mxCell>
        <mxCell id="B7HNf2a2jgd1WP8cKd5H-30" value="" style="edgeStyle=orthogonalEdgeStyle;rounded=0;orthogonalLoop=1;jettySize=auto;html=1;fontColor=#000000;strokeColor=#339AF0;strokeWidth=2;fontFamily=Comic Sans MS;fontSize=15;fontStyle=2" parent="WIyWlLk6GJQsqaUBKTNV-1" source="B7HNf2a2jgd1WP8cKd5H-27" target="B7HNf2a2jgd1WP8cKd5H-29" edge="1">
          <mxGeometry relative="1" as="geometry" />
        </mxCell>
        <mxCell id="B7HNf2a2jgd1WP8cKd5H-27" value="&lt;font style=&quot;font-size: 15px;&quot;&gt;JobMasterServiceLeadershipRunner.&lt;br style=&quot;font-size: 15px;&quot;&gt;grantLeadership()&lt;br style=&quot;font-size: 15px;&quot;&gt;&lt;/font&gt;" style="rounded=1;whiteSpace=wrap;html=1;align=left;fillColor=#FFFFFF;strokeColor=#339AF0;strokeWidth=2;fontFamily=Comic Sans MS;fontSize=15;fontColor=#000000;arcSize=8;fontStyle=2" parent="WIyWlLk6GJQsqaUBKTNV-1" vertex="1">
          <mxGeometry x="450" y="360" width="250" height="70" as="geometry" />
        </mxCell>
        <mxCell id="B7HNf2a2jgd1WP8cKd5H-32" value="" style="edgeStyle=orthogonalEdgeStyle;rounded=0;orthogonalLoop=1;jettySize=auto;html=1;fontColor=#000000;strokeColor=#339AF0;strokeWidth=2;fontFamily=Comic Sans MS;fontSize=15;fontStyle=2" parent="WIyWlLk6GJQsqaUBKTNV-1" source="B7HNf2a2jgd1WP8cKd5H-29" target="B7HNf2a2jgd1WP8cKd5H-31" edge="1">
          <mxGeometry relative="1" as="geometry" />
        </mxCell>
        <mxCell id="B7HNf2a2jgd1WP8cKd5H-29" value="&lt;font style=&quot;font-size: 15px;&quot;&gt;&lt;br style=&quot;font-size: 15px;&quot;&gt;JobMasterServiceLeadershipRunner.&lt;br style=&quot;font-size: 15px;&quot;&gt;startJobMasterServiceProcessAsync&lt;br style=&quot;font-size: 15px;&quot;&gt;&lt;br style=&quot;font-size: 15px;&quot;&gt;&lt;/font&gt;" style="rounded=1;whiteSpace=wrap;html=1;align=left;fillColor=#FFFFFF;strokeColor=#339AF0;strokeWidth=2;fontFamily=Comic Sans MS;fontSize=15;fontColor=#000000;arcSize=8;fontStyle=2" parent="WIyWlLk6GJQsqaUBKTNV-1" vertex="1">
          <mxGeometry x="450" y="210" width="250" height="70" as="geometry" />
        </mxCell>
        <mxCell id="B7HNf2a2jgd1WP8cKd5H-34" value="" style="edgeStyle=orthogonalEdgeStyle;rounded=0;orthogonalLoop=1;jettySize=auto;html=1;fontColor=#000000;strokeColor=#339AF0;strokeWidth=2;fontFamily=Comic Sans MS;fontSize=15;fontStyle=2" parent="WIyWlLk6GJQsqaUBKTNV-1" source="B7HNf2a2jgd1WP8cKd5H-31" target="B7HNf2a2jgd1WP8cKd5H-33" edge="1">
          <mxGeometry relative="1" as="geometry" />
        </mxCell>
        <mxCell id="B7HNf2a2jgd1WP8cKd5H-31" value="&lt;font style=&quot;font-size: 15px;&quot;&gt;&lt;br style=&quot;font-size: 15px;&quot;&gt;JobMasterServiceLeadershipRunner.&lt;br style=&quot;font-size: 15px;&quot;&gt;startJobMasterServiceProcessAsync&lt;br style=&quot;font-size: 15px;&quot;&gt;&lt;br style=&quot;font-size: 15px;&quot;&gt;&lt;/font&gt;" style="rounded=1;whiteSpace=wrap;html=1;align=left;fillColor=#FFFFFF;strokeColor=#339AF0;strokeWidth=2;fontFamily=Comic Sans MS;fontSize=15;fontColor=#000000;arcSize=8;fontStyle=2" parent="WIyWlLk6GJQsqaUBKTNV-1" vertex="1">
          <mxGeometry x="450" y="60" width="250" height="70" as="geometry" />
        </mxCell>
        <mxCell id="B7HNf2a2jgd1WP8cKd5H-36" value="" style="edgeStyle=orthogonalEdgeStyle;rounded=0;orthogonalLoop=1;jettySize=auto;html=1;fontColor=#000000;strokeColor=#339AF0;strokeWidth=2;fontFamily=Comic Sans MS;fontSize=15;fontStyle=2" parent="WIyWlLk6GJQsqaUBKTNV-1" source="B7HNf2a2jgd1WP8cKd5H-33" target="B7HNf2a2jgd1WP8cKd5H-35" edge="1">
          <mxGeometry relative="1" as="geometry" />
        </mxCell>
        <mxCell id="B7HNf2a2jgd1WP8cKd5H-33" value="&lt;font style=&quot;font-size: 15px;&quot;&gt;&lt;br style=&quot;font-size: 15px;&quot;&gt;JobMasterServiceLeadershipRunner.&lt;br style=&quot;font-size: 15px;&quot;&gt;verifyJobSchedulingStatusAnd&lt;br style=&quot;font-size: 15px;&quot;&gt;CreateJobMasterServiceProcess()&lt;br style=&quot;font-size: 15px;&quot;&gt;&lt;br style=&quot;font-size: 15px;&quot;&gt;&lt;/font&gt;" style="rounded=1;whiteSpace=wrap;html=1;align=left;fillColor=#FFFFFF;strokeColor=#339AF0;strokeWidth=2;fontFamily=Comic Sans MS;fontSize=15;fontColor=#000000;arcSize=8;fontStyle=2" parent="WIyWlLk6GJQsqaUBKTNV-1" vertex="1">
          <mxGeometry x="780" y="60" width="250" height="70" as="geometry" />
        </mxCell>
        <mxCell id="B7HNf2a2jgd1WP8cKd5H-38" value="" style="edgeStyle=orthogonalEdgeStyle;rounded=0;orthogonalLoop=1;jettySize=auto;html=1;fontColor=#000000;strokeColor=#339AF0;strokeWidth=2;fontFamily=Comic Sans MS;fontSize=15;fontStyle=2" parent="WIyWlLk6GJQsqaUBKTNV-1" source="B7HNf2a2jgd1WP8cKd5H-35" target="B7HNf2a2jgd1WP8cKd5H-37" edge="1">
          <mxGeometry relative="1" as="geometry" />
        </mxCell>
        <mxCell id="B7HNf2a2jgd1WP8cKd5H-35" value="&lt;font style=&quot;font-size: 15px;&quot;&gt;JobMasterServiceLeadershipRunner.&lt;br style=&quot;font-size: 15px;&quot;&gt;createNewJobMasterServiceProcess()&lt;br style=&quot;font-size: 15px;&quot;&gt;&lt;/font&gt;" style="rounded=1;whiteSpace=wrap;html=1;align=left;fillColor=#FFFFFF;strokeColor=#339AF0;strokeWidth=2;fontFamily=Comic Sans MS;fontSize=15;fontColor=#000000;arcSize=8;fontStyle=2" parent="WIyWlLk6GJQsqaUBKTNV-1" vertex="1">
          <mxGeometry x="780" y="210" width="250" height="70" as="geometry" />
        </mxCell>
        <mxCell id="B7HNf2a2jgd1WP8cKd5H-40" value="" style="edgeStyle=orthogonalEdgeStyle;rounded=0;orthogonalLoop=1;jettySize=auto;html=1;fontColor=#000000;strokeColor=#339AF0;strokeWidth=2;fontFamily=Comic Sans MS;fontSize=15;fontStyle=2" parent="WIyWlLk6GJQsqaUBKTNV-1" source="B7HNf2a2jgd1WP8cKd5H-37" target="B7HNf2a2jgd1WP8cKd5H-39" edge="1">
          <mxGeometry relative="1" as="geometry" />
        </mxCell>
        <mxCell id="B7HNf2a2jgd1WP8cKd5H-37" value="&lt;font style=&quot;font-size: 15px;&quot;&gt;&lt;br style=&quot;font-size: 15px;&quot;&gt;JobMasterServiceLeadershipRunner.&lt;br style=&quot;font-size: 15px;&quot;&gt;startJobMasterServiceProcessAsync&lt;br style=&quot;font-size: 15px;&quot;&gt;&lt;br style=&quot;font-size: 15px;&quot;&gt;&lt;/font&gt;" style="rounded=1;whiteSpace=wrap;html=1;align=left;fillColor=#FFFFFF;strokeColor=#339AF0;strokeWidth=2;fontFamily=Comic Sans MS;fontSize=15;fontColor=#000000;arcSize=8;fontStyle=2" parent="WIyWlLk6GJQsqaUBKTNV-1" vertex="1">
          <mxGeometry x="780" y="360" width="250" height="70" as="geometry" />
        </mxCell>
        <mxCell id="B7HNf2a2jgd1WP8cKd5H-42" value="" style="edgeStyle=orthogonalEdgeStyle;rounded=0;orthogonalLoop=1;jettySize=auto;html=1;fontColor=#000000;strokeColor=#339AF0;strokeWidth=2;fontFamily=Comic Sans MS;fontSize=15;fontStyle=2" parent="WIyWlLk6GJQsqaUBKTNV-1" source="B7HNf2a2jgd1WP8cKd5H-39" target="B7HNf2a2jgd1WP8cKd5H-41" edge="1">
          <mxGeometry relative="1" as="geometry" />
        </mxCell>
        <mxCell id="B7HNf2a2jgd1WP8cKd5H-39" value="&lt;font style=&quot;font-size: 15px;&quot;&gt;&lt;br style=&quot;font-size: 15px;&quot;&gt;DefaultJobMasterServiceProcessFactory.&lt;br style=&quot;font-size: 15px;&quot;&gt;create()&lt;br style=&quot;font-size: 15px;&quot;&gt;&lt;br style=&quot;font-size: 15px;&quot;&gt;&lt;/font&gt;" style="rounded=1;whiteSpace=wrap;html=1;align=left;fillColor=#FFFFFF;strokeColor=#339AF0;strokeWidth=2;fontFamily=Comic Sans MS;fontSize=15;fontColor=#000000;arcSize=8;fontStyle=2" parent="WIyWlLk6GJQsqaUBKTNV-1" vertex="1">
          <mxGeometry x="780" y="510" width="250" height="70" as="geometry" />
        </mxCell>
        <mxCell id="B7HNf2a2jgd1WP8cKd5H-44" value="" style="edgeStyle=orthogonalEdgeStyle;rounded=0;orthogonalLoop=1;jettySize=auto;html=1;fontColor=#000000;strokeColor=#339AF0;strokeWidth=2;fontFamily=Comic Sans MS;fontSize=15;fontStyle=2" parent="WIyWlLk6GJQsqaUBKTNV-1" source="B7HNf2a2jgd1WP8cKd5H-41" target="B7HNf2a2jgd1WP8cKd5H-43" edge="1">
          <mxGeometry relative="1" as="geometry" />
        </mxCell>
        <mxCell id="B7HNf2a2jgd1WP8cKd5H-41" value="&lt;font style=&quot;font-size: 15px;&quot;&gt;new DefaultJobMasterServiceProcess()&lt;br style=&quot;font-size: 15px;&quot;&gt;&lt;/font&gt;" style="rounded=1;whiteSpace=wrap;html=1;align=left;fillColor=#FFFFFF;strokeColor=#339AF0;strokeWidth=2;fontColor=#000000;fontFamily=Comic Sans MS;fontSize=15;fontStyle=2" parent="WIyWlLk6GJQsqaUBKTNV-1" vertex="1">
          <mxGeometry x="780" y="660" width="250" height="70" as="geometry" />
        </mxCell>
        <mxCell id="B7HNf2a2jgd1WP8cKd5H-46" value="" style="edgeStyle=orthogonalEdgeStyle;rounded=0;orthogonalLoop=1;jettySize=auto;html=1;fontColor=#000000;strokeColor=#339AF0;strokeWidth=2;fontFamily=Comic Sans MS;fontSize=15;fontStyle=2" parent="WIyWlLk6GJQsqaUBKTNV-1" source="B7HNf2a2jgd1WP8cKd5H-43" target="B7HNf2a2jgd1WP8cKd5H-45" edge="1">
          <mxGeometry relative="1" as="geometry" />
        </mxCell>
        <mxCell id="B7HNf2a2jgd1WP8cKd5H-43" value="&lt;font style=&quot;font-size: 15px;&quot;&gt;DefaultJobMasterServiceFactory.&lt;br style=&quot;font-size: 15px;&quot;&gt;createJobMasterService()&lt;br style=&quot;font-size: 15px;&quot;&gt;&lt;br style=&quot;font-size: 15px;&quot;&gt;&lt;/font&gt;" style="rounded=1;whiteSpace=wrap;html=1;align=left;fillColor=#FFFFFF;strokeColor=#339AF0;strokeWidth=2;fontColor=#000000;fontFamily=Comic Sans MS;fontSize=15;fontStyle=2" parent="WIyWlLk6GJQsqaUBKTNV-1" vertex="1">
          <mxGeometry x="780" y="810" width="250" height="70" as="geometry" />
        </mxCell>
        <mxCell id="B7HNf2a2jgd1WP8cKd5H-48" value="" style="edgeStyle=orthogonalEdgeStyle;rounded=0;orthogonalLoop=1;jettySize=auto;html=1;fontColor=#000000;strokeColor=#339AF0;strokeWidth=2;fontFamily=Comic Sans MS;fontSize=15;fontStyle=2" parent="WIyWlLk6GJQsqaUBKTNV-1" source="B7HNf2a2jgd1WP8cKd5H-45" target="B7HNf2a2jgd1WP8cKd5H-47" edge="1">
          <mxGeometry relative="1" as="geometry" />
        </mxCell>
        <mxCell id="B7HNf2a2jgd1WP8cKd5H-45" value="&lt;font style=&quot;font-size: 15px;&quot;&gt;DefaultJobMasterServiceFactory.&lt;br style=&quot;font-size: 15px;&quot;&gt;internalCreateJobMasterService()&lt;br style=&quot;font-size: 15px;&quot;&gt;&lt;br style=&quot;font-size: 15px;&quot;&gt;&lt;/font&gt;" style="rounded=1;whiteSpace=wrap;html=1;align=left;fillColor=#FFFFFF;strokeColor=#339AF0;strokeWidth=2;fontColor=#000000;fontFamily=Comic Sans MS;fontSize=15;fontStyle=2" parent="WIyWlLk6GJQsqaUBKTNV-1" vertex="1">
          <mxGeometry x="780" y="960" width="250" height="70" as="geometry" />
        </mxCell>
        <mxCell id="B7HNf2a2jgd1WP8cKd5H-50" value="" style="edgeStyle=orthogonalEdgeStyle;rounded=0;orthogonalLoop=1;jettySize=auto;html=1;fontColor=#000000;strokeColor=#339AF0;strokeWidth=2;fontFamily=Comic Sans MS;fontSize=15;fontStyle=2" parent="WIyWlLk6GJQsqaUBKTNV-1" source="B7HNf2a2jgd1WP8cKd5H-47" target="B7HNf2a2jgd1WP8cKd5H-49" edge="1">
          <mxGeometry relative="1" as="geometry" />
        </mxCell>
        <mxCell id="B7HNf2a2jgd1WP8cKd5H-47" value="&lt;font style=&quot;font-size: 15px;&quot;&gt;new JobMaster&lt;br style=&quot;font-size: 15px;&quot;&gt;&lt;/font&gt;" style="rounded=1;whiteSpace=wrap;html=1;align=left;fillColor=#FFFFFF;strokeColor=#339AF0;strokeWidth=2;fontColor=#000000;fontFamily=Comic Sans MS;fontSize=15;fontStyle=2" parent="WIyWlLk6GJQsqaUBKTNV-1" vertex="1">
          <mxGeometry x="780" y="1110" width="250" height="70" as="geometry" />
        </mxCell>
        <mxCell id="B7HNf2a2jgd1WP8cKd5H-49" value="&lt;font style=&quot;font-size: 15px;&quot;&gt;jobMaster.start()&lt;br style=&quot;font-size: 15px;&quot;&gt;&lt;/font&gt;" style="rounded=1;whiteSpace=wrap;html=1;align=left;fillColor=#FFFFFF;strokeColor=#339AF0;strokeWidth=2;fontColor=#000000;fontFamily=Comic Sans MS;fontSize=15;fontStyle=2" parent="WIyWlLk6GJQsqaUBKTNV-1" vertex="1">
          <mxGeometry x="1110" y="1110" width="250" height="70" as="geometry" />
        </mxCell>
        <mxCell id="B7HNf2a2jgd1WP8cKd5H-51" value="&lt;font style=&quot;font-size: 15px;&quot;&gt;SessionDispatcherLeaderProcess.&lt;br style=&quot;font-size: 15px;&quot;&gt;createDispatcherBasedOnRecovered&lt;br style=&quot;font-size: 15px;&quot;&gt;JobGraphsAndRecoveredDirtyJobResults()&lt;/font&gt;" style="rounded=1;whiteSpace=wrap;html=1;align=left;fillColor=#FFFFFF;strokeColor=#339AF0;strokeWidth=2;fontFamily=Comic Sans MS;fontSize=15;fontColor=#000000;arcSize=8;fontStyle=2" parent="WIyWlLk6GJQsqaUBKTNV-1" vertex="1">
          <mxGeometry x="-190" y="60" width="250" height="70" as="geometry" />
        </mxCell>
        <mxCell id="B7HNf2a2jgd1WP8cKd5H-55" value="" style="edgeStyle=orthogonalEdgeStyle;rounded=0;orthogonalLoop=1;jettySize=auto;html=1;fontColor=#000000;strokeColor=#339AF0;strokeWidth=2;fontFamily=Comic Sans MS;fontSize=15;fontStyle=2" parent="WIyWlLk6GJQsqaUBKTNV-1" source="B7HNf2a2jgd1WP8cKd5H-52" target="B7HNf2a2jgd1WP8cKd5H-54" edge="1">
          <mxGeometry relative="1" as="geometry" />
        </mxCell>
        <mxCell id="B7HNf2a2jgd1WP8cKd5H-52" value="&lt;font style=&quot;font-size: 15px;&quot;&gt;YarnApplicationClusterEntryPoint.&lt;br style=&quot;font-size: 15px;&quot;&gt;main()&lt;br style=&quot;font-size: 15px;&quot;&gt;&lt;/font&gt;" style="rounded=1;whiteSpace=wrap;html=1;align=left;fillColor=#FFFFFF;strokeColor=#339AF0;strokeWidth=2;fontFamily=Comic Sans MS;fontSize=15;fontColor=#000000;arcSize=8;fontStyle=2" parent="WIyWlLk6GJQsqaUBKTNV-1" vertex="1">
          <mxGeometry x="-520" y="60" width="250" height="70" as="geometry" />
        </mxCell>
        <mxCell id="B7HNf2a2jgd1WP8cKd5H-57" value="" style="edgeStyle=orthogonalEdgeStyle;rounded=0;orthogonalLoop=1;jettySize=auto;html=1;fontColor=#000000;strokeColor=#339AF0;strokeWidth=2;fontFamily=Comic Sans MS;fontSize=15;fontStyle=2" parent="WIyWlLk6GJQsqaUBKTNV-1" source="B7HNf2a2jgd1WP8cKd5H-54" target="B7HNf2a2jgd1WP8cKd5H-56" edge="1">
          <mxGeometry relative="1" as="geometry" />
        </mxCell>
        <mxCell id="B7HNf2a2jgd1WP8cKd5H-54" value="&lt;font style=&quot;font-size: 15px;&quot;&gt;ClusterEntrypoint.runClusterEntrypoint&lt;br style=&quot;font-size: 15px;&quot;&gt;&lt;/font&gt;" style="rounded=1;whiteSpace=wrap;html=1;align=left;fillColor=#FFFFFF;strokeColor=#339AF0;strokeWidth=2;fontFamily=Comic Sans MS;fontSize=15;fontColor=#000000;arcSize=8;fontStyle=2" parent="WIyWlLk6GJQsqaUBKTNV-1" vertex="1">
          <mxGeometry x="-520" y="210" width="250" height="70" as="geometry" />
        </mxCell>
        <mxCell id="B7HNf2a2jgd1WP8cKd5H-59" value="" style="edgeStyle=orthogonalEdgeStyle;rounded=0;orthogonalLoop=1;jettySize=auto;html=1;fontColor=#000000;strokeColor=#339AF0;strokeWidth=2;fontFamily=Comic Sans MS;fontSize=15;fontStyle=2" parent="WIyWlLk6GJQsqaUBKTNV-1" source="B7HNf2a2jgd1WP8cKd5H-56" target="B7HNf2a2jgd1WP8cKd5H-58" edge="1">
          <mxGeometry relative="1" as="geometry" />
        </mxCell>
        <mxCell id="B7HNf2a2jgd1WP8cKd5H-56" value="&lt;font style=&quot;font-size: 15px;&quot;&gt;clusterEntrypoint.startCluster()&lt;br style=&quot;font-size: 15px;&quot;&gt;&lt;/font&gt;" style="rounded=1;whiteSpace=wrap;html=1;align=left;fillColor=#FFFFFF;strokeColor=#339AF0;strokeWidth=2;fontFamily=Comic Sans MS;fontSize=15;fontColor=#000000;arcSize=8;fontStyle=2" parent="WIyWlLk6GJQsqaUBKTNV-1" vertex="1">
          <mxGeometry x="-520" y="360" width="250" height="70" as="geometry" />
        </mxCell>
        <mxCell id="yZr3j9HksX1TUkm4nSlX-1" style="edgeStyle=orthogonalEdgeStyle;shape=connector;rounded=0;orthogonalLoop=1;jettySize=auto;html=1;exitX=0.5;exitY=1;exitDx=0;exitDy=0;entryX=0.5;entryY=0;entryDx=0;entryDy=0;labelBackgroundColor=default;fontFamily=Comic Sans MS;fontSize=15;fontColor=#000000;endArrow=classic;strokeColor=#339AF0;strokeWidth=2;fontStyle=2" parent="WIyWlLk6GJQsqaUBKTNV-1" source="B7HNf2a2jgd1WP8cKd5H-58" target="B7HNf2a2jgd1WP8cKd5H-60" edge="1">
          <mxGeometry relative="1" as="geometry" />
        </mxCell>
        <mxCell id="B7HNf2a2jgd1WP8cKd5H-58" value="&lt;font style=&quot;font-size: 15px;&quot;&gt;ClusterEntrypoint.runClusterEntrypoint&lt;br style=&quot;font-size: 15px;&quot;&gt;&lt;/font&gt;" style="rounded=1;whiteSpace=wrap;html=1;align=left;fillColor=#FFFFFF;strokeColor=#339AF0;strokeWidth=2;fontFamily=Comic Sans MS;fontSize=15;fontColor=#000000;arcSize=8;fontStyle=2" parent="WIyWlLk6GJQsqaUBKTNV-1" vertex="1">
          <mxGeometry x="-520" y="510" width="250" height="70" as="geometry" />
        </mxCell>
        <mxCell id="B7HNf2a2jgd1WP8cKd5H-63" value="" style="edgeStyle=orthogonalEdgeStyle;rounded=0;orthogonalLoop=1;jettySize=auto;html=1;fontColor=#000000;strokeColor=#339AF0;strokeWidth=2;fontFamily=Comic Sans MS;fontSize=15;fontStyle=2" parent="WIyWlLk6GJQsqaUBKTNV-1" source="B7HNf2a2jgd1WP8cKd5H-60" target="B7HNf2a2jgd1WP8cKd5H-62" edge="1">
          <mxGeometry relative="1" as="geometry" />
        </mxCell>
        <mxCell id="B7HNf2a2jgd1WP8cKd5H-60" value="&lt;font style=&quot;&quot;&gt;&lt;font style=&quot;font-size: 12px;&quot;&gt;createDispatcherResourceManagerComponentFactory&lt;/font&gt;&lt;br style=&quot;font-size: 15px;&quot;&gt;&lt;/font&gt;" style="rounded=1;whiteSpace=wrap;html=1;align=left;fillColor=#FFFFFF;strokeColor=#339AF0;strokeWidth=2;fontFamily=Comic Sans MS;fontSize=15;fontColor=#000000;arcSize=8;fontStyle=2" parent="WIyWlLk6GJQsqaUBKTNV-1" vertex="1">
          <mxGeometry x="-520" y="660" width="250" height="70" as="geometry" />
        </mxCell>
        <mxCell id="B7HNf2a2jgd1WP8cKd5H-65" value="" style="edgeStyle=orthogonalEdgeStyle;rounded=0;orthogonalLoop=1;jettySize=auto;html=1;fontColor=#000000;strokeColor=#339AF0;strokeWidth=2;fontFamily=Comic Sans MS;fontSize=15;fontStyle=2" parent="WIyWlLk6GJQsqaUBKTNV-1" source="B7HNf2a2jgd1WP8cKd5H-62" target="B7HNf2a2jgd1WP8cKd5H-64" edge="1">
          <mxGeometry relative="1" as="geometry" />
        </mxCell>
        <mxCell id="B7HNf2a2jgd1WP8cKd5H-83" value="" style="edgeStyle=orthogonalEdgeStyle;rounded=1;orthogonalLoop=1;jettySize=auto;html=1;fontColor=#000000;strokeColor=#339AF0;strokeWidth=2;fontFamily=Comic Sans MS;fontSize=15;fontStyle=2" parent="WIyWlLk6GJQsqaUBKTNV-1" source="B7HNf2a2jgd1WP8cKd5H-62" target="B7HNf2a2jgd1WP8cKd5H-82" edge="1">
          <mxGeometry relative="1" as="geometry" />
        </mxCell>
        <mxCell id="B7HNf2a2jgd1WP8cKd5H-62" value="&lt;font style=&quot;font-size: 15px;&quot;&gt;dispatcherResourceManagerComponent&lt;br style=&quot;font-size: 15px;&quot;&gt;Factory.create&lt;br style=&quot;font-size: 15px;&quot;&gt;&lt;/font&gt;" style="rounded=1;whiteSpace=wrap;html=1;align=left;fillColor=#FFFFFF;strokeColor=#339AF0;strokeWidth=2;fontFamily=Comic Sans MS;fontSize=15;fontColor=#000000;arcSize=8;fontStyle=2" parent="WIyWlLk6GJQsqaUBKTNV-1" vertex="1">
          <mxGeometry x="-520" y="810" width="250" height="70" as="geometry" />
        </mxCell>
        <mxCell id="B7HNf2a2jgd1WP8cKd5H-67" value="" style="edgeStyle=orthogonalEdgeStyle;rounded=0;orthogonalLoop=1;jettySize=auto;html=1;fontColor=#000000;strokeColor=#339AF0;strokeWidth=2;fontFamily=Comic Sans MS;fontSize=15;fontStyle=2" parent="WIyWlLk6GJQsqaUBKTNV-1" source="B7HNf2a2jgd1WP8cKd5H-64" target="B7HNf2a2jgd1WP8cKd5H-66" edge="1">
          <mxGeometry relative="1" as="geometry" />
        </mxCell>
        <mxCell id="B7HNf2a2jgd1WP8cKd5H-64" value="&lt;font style=&quot;font-size: 15px;&quot;&gt;dispatcherRunnerFactory&lt;br style=&quot;font-size: 15px;&quot;&gt;.createDispatcherRunner&lt;br style=&quot;font-size: 15px;&quot;&gt;&lt;/font&gt;" style="rounded=1;whiteSpace=wrap;html=1;align=left;fillColor=#FFFFFF;strokeColor=#339AF0;strokeWidth=2;fontFamily=Comic Sans MS;fontSize=15;fontColor=#000000;arcSize=8;fontStyle=2" parent="WIyWlLk6GJQsqaUBKTNV-1" vertex="1">
          <mxGeometry x="-520" y="960" width="250" height="70" as="geometry" />
        </mxCell>
        <mxCell id="B7HNf2a2jgd1WP8cKd5H-69" value="" style="edgeStyle=orthogonalEdgeStyle;rounded=0;orthogonalLoop=1;jettySize=auto;html=1;fontColor=#000000;strokeColor=#339AF0;strokeWidth=2;fontFamily=Comic Sans MS;fontSize=15;fontStyle=2" parent="WIyWlLk6GJQsqaUBKTNV-1" source="B7HNf2a2jgd1WP8cKd5H-66" target="B7HNf2a2jgd1WP8cKd5H-68" edge="1">
          <mxGeometry relative="1" as="geometry" />
        </mxCell>
        <mxCell id="B7HNf2a2jgd1WP8cKd5H-66" value="&lt;font style=&quot;font-size: 15px;&quot;&gt;DefaultDispatcherRunnerFactory.&lt;br style=&quot;font-size: 15px;&quot;&gt;createDispatcherRunner()&lt;br style=&quot;font-size: 15px;&quot;&gt;&lt;/font&gt;" style="rounded=1;whiteSpace=wrap;html=1;align=left;fillColor=#FFFFFF;strokeColor=#339AF0;strokeWidth=2;fontFamily=Comic Sans MS;fontSize=15;fontColor=#000000;arcSize=8;fontStyle=2" parent="WIyWlLk6GJQsqaUBKTNV-1" vertex="1">
          <mxGeometry x="-520" y="1110" width="250" height="70" as="geometry" />
        </mxCell>
        <mxCell id="B7HNf2a2jgd1WP8cKd5H-71" value="" style="edgeStyle=orthogonalEdgeStyle;rounded=0;orthogonalLoop=1;jettySize=auto;html=1;fontColor=#000000;strokeColor=#339AF0;strokeWidth=2;fontFamily=Comic Sans MS;fontSize=15;fontStyle=2" parent="WIyWlLk6GJQsqaUBKTNV-1" source="B7HNf2a2jgd1WP8cKd5H-68" target="B7HNf2a2jgd1WP8cKd5H-70" edge="1">
          <mxGeometry relative="1" as="geometry" />
        </mxCell>
        <mxCell id="B7HNf2a2jgd1WP8cKd5H-68" value="&lt;font style=&quot;font-size: 15px;&quot;&gt;ApplicationDispatcherLeaderProcessFactory&lt;br style=&quot;font-size: 15px;&quot;&gt;Factory.createFactory&lt;br style=&quot;font-size: 15px;&quot;&gt;&lt;/font&gt;" style="rounded=1;whiteSpace=wrap;html=1;align=left;fillColor=#FFFFFF;strokeColor=#339AF0;strokeWidth=2;fontFamily=Comic Sans MS;fontSize=15;fontColor=#000000;arcSize=8;fontStyle=2" parent="WIyWlLk6GJQsqaUBKTNV-1" vertex="1">
          <mxGeometry x="-190" y="1110" width="250" height="70" as="geometry" />
        </mxCell>
        <mxCell id="B7HNf2a2jgd1WP8cKd5H-73" value="" style="edgeStyle=orthogonalEdgeStyle;rounded=0;orthogonalLoop=1;jettySize=auto;html=1;fontColor=#000000;strokeColor=#339AF0;strokeWidth=2;fontFamily=Comic Sans MS;fontSize=15;fontStyle=2" parent="WIyWlLk6GJQsqaUBKTNV-1" source="B7HNf2a2jgd1WP8cKd5H-70" target="B7HNf2a2jgd1WP8cKd5H-72" edge="1">
          <mxGeometry relative="1" as="geometry" />
        </mxCell>
        <mxCell id="B7HNf2a2jgd1WP8cKd5H-70" value="&lt;font style=&quot;font-size: 15px;&quot;&gt;new ApplicationDispatcherGateway&lt;br style=&quot;font-size: 15px;&quot;&gt;ServiceFactory&lt;br style=&quot;font-size: 15px;&quot;&gt;&amp;nbsp;&lt;br style=&quot;font-size: 15px;&quot;&gt;&lt;/font&gt;" style="rounded=1;whiteSpace=wrap;html=1;align=left;fillColor=#FFFFFF;strokeColor=#339AF0;strokeWidth=2;fontFamily=Comic Sans MS;fontSize=15;fontColor=#000000;arcSize=8;fontStyle=2" parent="WIyWlLk6GJQsqaUBKTNV-1" vertex="1">
          <mxGeometry x="-190" y="960" width="250" height="70" as="geometry" />
        </mxCell>
        <mxCell id="B7HNf2a2jgd1WP8cKd5H-75" value="" style="edgeStyle=orthogonalEdgeStyle;rounded=0;orthogonalLoop=1;jettySize=auto;html=1;fontColor=#000000;strokeColor=#339AF0;strokeWidth=2;fontFamily=Comic Sans MS;fontSize=15;fontStyle=2" parent="WIyWlLk6GJQsqaUBKTNV-1" source="B7HNf2a2jgd1WP8cKd5H-72" target="B7HNf2a2jgd1WP8cKd5H-74" edge="1">
          <mxGeometry relative="1" as="geometry" />
        </mxCell>
        <mxCell id="B7HNf2a2jgd1WP8cKd5H-72" value="&lt;font style=&quot;font-size: 15px;&quot;&gt;new SessionDispatcherLeaderProcessFactory&lt;br style=&quot;font-size: 15px;&quot;&gt;&amp;nbsp;&lt;br style=&quot;font-size: 15px;&quot;&gt;&lt;/font&gt;" style="rounded=1;whiteSpace=wrap;html=1;align=left;fillColor=#FFFFFF;strokeColor=#339AF0;strokeWidth=2;fontFamily=Comic Sans MS;fontSize=15;fontColor=#000000;arcSize=8;fontStyle=2" parent="WIyWlLk6GJQsqaUBKTNV-1" vertex="1">
          <mxGeometry x="-190" y="810" width="250" height="70" as="geometry" />
        </mxCell>
        <mxCell id="B7HNf2a2jgd1WP8cKd5H-77" value="" style="edgeStyle=orthogonalEdgeStyle;rounded=0;orthogonalLoop=1;jettySize=auto;html=1;fontColor=#000000;strokeColor=#339AF0;strokeWidth=2;fontFamily=Comic Sans MS;fontSize=15;fontStyle=2" parent="WIyWlLk6GJQsqaUBKTNV-1" source="B7HNf2a2jgd1WP8cKd5H-74" target="B7HNf2a2jgd1WP8cKd5H-76" edge="1">
          <mxGeometry relative="1" as="geometry" />
        </mxCell>
        <mxCell id="B7HNf2a2jgd1WP8cKd5H-74" value="&lt;font style=&quot;font-size: 15px;&quot;&gt;&amp;nbsp; &amp;nbsp; &amp;nbsp; &amp;nbsp; &amp;nbsp; create&lt;br style=&quot;font-size: 15px;&quot;&gt;&lt;/font&gt;" style="rounded=1;whiteSpace=wrap;html=1;align=left;fillColor=#FFFFFF;strokeColor=#339AF0;strokeWidth=2;fontFamily=Comic Sans MS;fontSize=15;fontColor=#000000;arcSize=8;fontStyle=2" parent="WIyWlLk6GJQsqaUBKTNV-1" vertex="1">
          <mxGeometry x="-190" y="660" width="250" height="70" as="geometry" />
        </mxCell>
        <mxCell id="B7HNf2a2jgd1WP8cKd5H-79" value="" style="edgeStyle=orthogonalEdgeStyle;rounded=0;orthogonalLoop=1;jettySize=auto;html=1;fontColor=#000000;strokeColor=#339AF0;strokeWidth=2;fontFamily=Comic Sans MS;fontSize=15;fontStyle=2" parent="WIyWlLk6GJQsqaUBKTNV-1" source="B7HNf2a2jgd1WP8cKd5H-76" target="B7HNf2a2jgd1WP8cKd5H-78" edge="1">
          <mxGeometry relative="1" as="geometry" />
        </mxCell>
        <mxCell id="B7HNf2a2jgd1WP8cKd5H-76" value="&lt;font style=&quot;font-size: 15px;&quot;&gt;SessionDispatcherLeaderProcess.create&lt;br style=&quot;font-size: 15px;&quot;&gt;&lt;br style=&quot;font-size: 15px;&quot;&gt;&amp;nbsp;&lt;br style=&quot;font-size: 15px;&quot;&gt;&lt;/font&gt;" style="rounded=1;whiteSpace=wrap;html=1;align=left;fillColor=#FFFFFF;strokeColor=#339AF0;strokeWidth=2;fontFamily=Comic Sans MS;fontSize=15;fontColor=#000000;arcSize=8;fontStyle=2" parent="WIyWlLk6GJQsqaUBKTNV-1" vertex="1">
          <mxGeometry x="-190" y="510" width="250" height="70" as="geometry" />
        </mxCell>
        <mxCell id="B7HNf2a2jgd1WP8cKd5H-81" value="" style="edgeStyle=orthogonalEdgeStyle;rounded=0;orthogonalLoop=1;jettySize=auto;html=1;fontColor=#000000;strokeColor=#339AF0;strokeWidth=2;fontFamily=Comic Sans MS;fontSize=15;fontStyle=2" parent="WIyWlLk6GJQsqaUBKTNV-1" source="B7HNf2a2jgd1WP8cKd5H-78" target="B7HNf2a2jgd1WP8cKd5H-80" edge="1">
          <mxGeometry relative="1" as="geometry" />
        </mxCell>
        <mxCell id="B7HNf2a2jgd1WP8cKd5H-78" value="&lt;font style=&quot;font-size: 15px;&quot;&gt;new SessionDispatcherLeaderProcess&lt;br style=&quot;font-size: 15px;&quot;&gt;&lt;/font&gt;" style="rounded=1;whiteSpace=wrap;html=1;align=left;fillColor=#FFFFFF;strokeColor=#339AF0;strokeWidth=2;fontFamily=Comic Sans MS;fontSize=15;fontColor=#000000;arcSize=8;fontStyle=2" parent="WIyWlLk6GJQsqaUBKTNV-1" vertex="1">
          <mxGeometry x="-190" y="360" width="250" height="70" as="geometry" />
        </mxCell>
        <mxCell id="B7HNf2a2jgd1WP8cKd5H-80" value="&lt;span style=&quot;font-size: 15px;&quot;&gt;SessionDispatcherLeaderProcess.&lt;br style=&quot;font-size: 15px;&quot;&gt;&lt;/span&gt;&lt;font style=&quot;font-size: 15px;&quot;&gt;onStart()&lt;br style=&quot;font-size: 15px;&quot;&gt;&lt;/font&gt;" style="rounded=1;whiteSpace=wrap;html=1;align=left;fillColor=#FFFFFF;strokeColor=#339AF0;strokeWidth=2;fontFamily=Comic Sans MS;fontSize=15;fontColor=#000000;arcSize=8;fontStyle=2" parent="WIyWlLk6GJQsqaUBKTNV-1" vertex="1">
          <mxGeometry x="-190" y="210" width="250" height="70" as="geometry" />
        </mxCell>
        <mxCell id="B7HNf2a2jgd1WP8cKd5H-85" value="" style="edgeStyle=orthogonalEdgeStyle;rounded=0;orthogonalLoop=1;jettySize=auto;html=1;fontColor=#000000;strokeColor=#339AF0;strokeWidth=2;fontFamily=Comic Sans MS;fontSize=15;fontStyle=2" parent="WIyWlLk6GJQsqaUBKTNV-1" source="B7HNf2a2jgd1WP8cKd5H-82" target="B7HNf2a2jgd1WP8cKd5H-84" edge="1">
          <mxGeometry relative="1" as="geometry" />
        </mxCell>
        <mxCell id="B7HNf2a2jgd1WP8cKd5H-82" value="&lt;font style=&quot;font-size: 15px;&quot;&gt;ResourceManagerServiceImpl.create&lt;br style=&quot;font-size: 15px;&quot;&gt;&lt;/font&gt;" style="rounded=1;whiteSpace=wrap;html=1;align=left;fillColor=#FFFFFF;strokeColor=#339AF0;strokeWidth=2;fontFamily=Comic Sans MS;fontSize=15;fontColor=#000000;arcSize=8;fontStyle=2" parent="WIyWlLk6GJQsqaUBKTNV-1" vertex="1">
          <mxGeometry x="-870" y="1280" width="250" height="70" as="geometry" />
        </mxCell>
        <mxCell id="B7HNf2a2jgd1WP8cKd5H-87" value="" style="edgeStyle=orthogonalEdgeStyle;rounded=0;orthogonalLoop=1;jettySize=auto;html=1;fontColor=#000000;strokeColor=#339AF0;strokeWidth=2;fontFamily=Comic Sans MS;fontSize=15;fontStyle=2" parent="WIyWlLk6GJQsqaUBKTNV-1" source="B7HNf2a2jgd1WP8cKd5H-84" target="B7HNf2a2jgd1WP8cKd5H-86" edge="1">
          <mxGeometry relative="1" as="geometry" />
        </mxCell>
        <mxCell id="B7HNf2a2jgd1WP8cKd5H-84" value="&lt;font style=&quot;font-size: 15px;&quot;&gt;ResourceManagerServiceImpl.start&lt;br style=&quot;font-size: 15px;&quot;&gt;&lt;/font&gt;" style="rounded=1;whiteSpace=wrap;html=1;align=left;fillColor=#FFFFFF;strokeColor=#339AF0;strokeWidth=2;fontFamily=Comic Sans MS;fontSize=15;fontColor=#000000;arcSize=8;fontStyle=2" parent="WIyWlLk6GJQsqaUBKTNV-1" vertex="1">
          <mxGeometry x="-520" y="1280" width="250" height="70" as="geometry" />
        </mxCell>
        <mxCell id="B7HNf2a2jgd1WP8cKd5H-89" value="" style="edgeStyle=orthogonalEdgeStyle;rounded=0;orthogonalLoop=1;jettySize=auto;html=1;fontColor=#000000;strokeColor=#339AF0;strokeWidth=2;fontFamily=Comic Sans MS;fontSize=15;fontStyle=2" parent="WIyWlLk6GJQsqaUBKTNV-1" source="B7HNf2a2jgd1WP8cKd5H-86" target="B7HNf2a2jgd1WP8cKd5H-88" edge="1">
          <mxGeometry relative="1" as="geometry" />
        </mxCell>
        <mxCell id="B7HNf2a2jgd1WP8cKd5H-86" value="&lt;font style=&quot;font-size: 15px;&quot;&gt;ResourceManagerServiceImpl.&lt;br style=&quot;font-size: 15px;&quot;&gt;grantLeadership&lt;br style=&quot;font-size: 15px;&quot;&gt;.&lt;br style=&quot;font-size: 15px;&quot;&gt;&lt;/font&gt;" style="rounded=1;whiteSpace=wrap;html=1;align=left;fillColor=#FFFFFF;strokeColor=#339AF0;strokeWidth=2;fontFamily=Comic Sans MS;fontSize=15;fontColor=#000000;arcSize=8;fontStyle=2" parent="WIyWlLk6GJQsqaUBKTNV-1" vertex="1">
          <mxGeometry x="-190" y="1280" width="250" height="70" as="geometry" />
        </mxCell>
        <mxCell id="B7HNf2a2jgd1WP8cKd5H-91" value="" style="edgeStyle=orthogonalEdgeStyle;rounded=0;orthogonalLoop=1;jettySize=auto;html=1;fontColor=#000000;strokeColor=#339AF0;strokeWidth=2;fontFamily=Comic Sans MS;fontSize=15;fontStyle=2" parent="WIyWlLk6GJQsqaUBKTNV-1" source="B7HNf2a2jgd1WP8cKd5H-88" target="B7HNf2a2jgd1WP8cKd5H-90" edge="1">
          <mxGeometry relative="1" as="geometry" />
        </mxCell>
        <mxCell id="B7HNf2a2jgd1WP8cKd5H-88" value="&lt;font style=&quot;font-size: 15px;&quot;&gt;ResourceManagerServiceImpl.&lt;br style=&quot;font-size: 15px;&quot;&gt;startNewLeaderResourceManager&lt;br style=&quot;font-size: 15px;&quot;&gt;&lt;/font&gt;" style="rounded=1;whiteSpace=wrap;html=1;align=left;fillColor=#FFFFFF;strokeColor=#339AF0;strokeWidth=2;fontFamily=Comic Sans MS;fontSize=15;fontColor=#000000;arcSize=8;fontStyle=2" parent="WIyWlLk6GJQsqaUBKTNV-1" vertex="1">
          <mxGeometry x="120" y="1280" width="250" height="70" as="geometry" />
        </mxCell>
        <mxCell id="B7HNf2a2jgd1WP8cKd5H-90" value="&lt;font style=&quot;font-size: 15px;&quot;&gt;ResourceManagerServiceImpl.&lt;br style=&quot;font-size: 15px;&quot;&gt;startNewLeaderResourceManager&lt;br style=&quot;font-size: 15px;&quot;&gt;&lt;/font&gt;" style="rounded=1;whiteSpace=wrap;html=1;align=left;fillColor=#FFFFFF;strokeColor=#339AF0;strokeWidth=2;fontFamily=Comic Sans MS;fontSize=15;fontColor=#000000;arcSize=8;fontStyle=2" parent="WIyWlLk6GJQsqaUBKTNV-1" vertex="1">
          <mxGeometry x="450" y="1280" width="250" height="70" as="geometry" />
        </mxCell>
        <mxCell id="AwBQZsJ90LAnf3Yeg7cW-6" value="" style="edgeStyle=orthogonalEdgeStyle;shape=connector;rounded=1;orthogonalLoop=1;jettySize=auto;html=1;labelBackgroundColor=default;strokeColor=#339AF0;strokeWidth=2;fontFamily=Comic Sans MS;fontSize=15;fontColor=#000000;endArrow=classic;fontStyle=2" parent="WIyWlLk6GJQsqaUBKTNV-1" source="AwBQZsJ90LAnf3Yeg7cW-0" target="AwBQZsJ90LAnf3Yeg7cW-5" edge="1">
          <mxGeometry relative="1" as="geometry" />
        </mxCell>
        <mxCell id="AwBQZsJ90LAnf3Yeg7cW-10" style="edgeStyle=orthogonalEdgeStyle;shape=connector;rounded=1;orthogonalLoop=1;jettySize=auto;html=1;exitX=0.5;exitY=1;exitDx=0;exitDy=0;entryX=0.5;entryY=0;entryDx=0;entryDy=0;labelBackgroundColor=default;strokeColor=#339AF0;strokeWidth=2;fontFamily=Comic Sans MS;fontSize=15;fontColor=#000000;endArrow=classic;fontStyle=2" parent="WIyWlLk6GJQsqaUBKTNV-1" source="AwBQZsJ90LAnf3Yeg7cW-0" target="AwBQZsJ90LAnf3Yeg7cW-7" edge="1">
          <mxGeometry relative="1" as="geometry" />
        </mxCell>
        <mxCell id="AwBQZsJ90LAnf3Yeg7cW-0" value="&lt;font style=&quot;font-size: 15px;&quot;&gt;ApplicationDispatcherBootstrap&lt;br style=&quot;font-size: 15px;&quot;&gt;&lt;/font&gt;" style="rounded=1;whiteSpace=wrap;html=1;align=left;fillColor=#FFFFFF;strokeColor=#339AF0;strokeWidth=2;fontFamily=Comic Sans MS;fontSize=15;fontColor=#000000;fontStyle=2" parent="WIyWlLk6GJQsqaUBKTNV-1" vertex="1">
          <mxGeometry x="91" y="1631" width="250" height="70" as="geometry" />
        </mxCell>
        <mxCell id="AwBQZsJ90LAnf3Yeg7cW-12" value="" style="edgeStyle=orthogonalEdgeStyle;shape=connector;rounded=0;orthogonalLoop=1;jettySize=auto;html=1;labelBackgroundColor=default;strokeColor=#339AF0;strokeWidth=2;fontFamily=Comic Sans MS;fontSize=15;fontColor=#000000;endArrow=classic;fontStyle=2" parent="WIyWlLk6GJQsqaUBKTNV-1" source="AwBQZsJ90LAnf3Yeg7cW-5" target="AwBQZsJ90LAnf3Yeg7cW-11" edge="1">
          <mxGeometry relative="1" as="geometry" />
        </mxCell>
        <mxCell id="AwBQZsJ90LAnf3Yeg7cW-5" value="&lt;span style=&quot;font-size: 15px;&quot;&gt;&lt;font style=&quot;font-size: 15px;&quot;&gt;ApplicationDispatcherBootstrap&lt;/font&gt;&lt;br style=&quot;font-size: 15px;&quot;&gt;&lt;/span&gt;&lt;font style=&quot;font-size: 15px;&quot;&gt;.fixJobIdAndRunApplicationAsync&lt;br style=&quot;font-size: 15px;&quot;&gt;&lt;/font&gt;" style="rounded=1;whiteSpace=wrap;html=1;align=left;fillColor=#FFFFFF;strokeColor=#339AF0;strokeWidth=2;fontFamily=Comic Sans MS;fontSize=15;fontColor=#000000;fontStyle=2" parent="WIyWlLk6GJQsqaUBKTNV-1" vertex="1">
          <mxGeometry x="-72" y="1802" width="250" height="70" as="geometry" />
        </mxCell>
        <mxCell id="AwBQZsJ90LAnf3Yeg7cW-7" value="&lt;font style=&quot;font-size: 15px;&quot;&gt;finishBootstrapTasks&lt;br style=&quot;font-size: 15px;&quot;&gt;&lt;/font&gt;" style="rounded=1;whiteSpace=wrap;html=1;align=left;fillColor=#FFFFFF;strokeColor=#339AF0;strokeWidth=2;fontFamily=Comic Sans MS;fontSize=15;fontColor=#000000;fontStyle=2" parent="WIyWlLk6GJQsqaUBKTNV-1" vertex="1">
          <mxGeometry x="234" y="1800" width="250" height="70" as="geometry" />
        </mxCell>
        <mxCell id="AwBQZsJ90LAnf3Yeg7cW-14" value="" style="edgeStyle=orthogonalEdgeStyle;shape=connector;rounded=0;orthogonalLoop=1;jettySize=auto;html=1;labelBackgroundColor=default;strokeColor=#339AF0;strokeWidth=2;fontFamily=Comic Sans MS;fontSize=15;fontColor=#000000;endArrow=classic;fontStyle=2" parent="WIyWlLk6GJQsqaUBKTNV-1" source="AwBQZsJ90LAnf3Yeg7cW-11" target="AwBQZsJ90LAnf3Yeg7cW-13" edge="1">
          <mxGeometry relative="1" as="geometry" />
        </mxCell>
        <mxCell id="AwBQZsJ90LAnf3Yeg7cW-22" style="edgeStyle=orthogonalEdgeStyle;shape=connector;rounded=1;orthogonalLoop=1;jettySize=auto;html=1;exitX=0.5;exitY=1;exitDx=0;exitDy=0;entryX=0.5;entryY=0;entryDx=0;entryDy=0;labelBackgroundColor=default;strokeColor=#339AF0;strokeWidth=2;fontFamily=Comic Sans MS;fontSize=15;fontColor=#000000;endArrow=classic;fontStyle=2" parent="WIyWlLk6GJQsqaUBKTNV-1" source="AwBQZsJ90LAnf3Yeg7cW-11" target="AwBQZsJ90LAnf3Yeg7cW-19" edge="1">
          <mxGeometry relative="1" as="geometry" />
        </mxCell>
        <mxCell id="AwBQZsJ90LAnf3Yeg7cW-11" value="&lt;span style=&quot;font-size: 15px;&quot;&gt;ApplicationDispatcherBootstrap&lt;br style=&quot;font-size: 15px;&quot;&gt;&lt;/span&gt;&lt;font style=&quot;font-size: 15px;&quot;&gt;.runApplicationAsync&lt;br style=&quot;font-size: 15px;&quot;&gt;&lt;/font&gt;" style="rounded=1;whiteSpace=wrap;html=1;align=left;fillColor=#FFFFFF;strokeColor=#339AF0;strokeWidth=2;fontFamily=Comic Sans MS;fontSize=15;fontColor=#000000;fontStyle=2" parent="WIyWlLk6GJQsqaUBKTNV-1" vertex="1">
          <mxGeometry x="-72" y="1952" width="250" height="70" as="geometry" />
        </mxCell>
        <mxCell id="AwBQZsJ90LAnf3Yeg7cW-16" value="" style="edgeStyle=orthogonalEdgeStyle;shape=connector;rounded=0;orthogonalLoop=1;jettySize=auto;html=1;labelBackgroundColor=default;strokeColor=#339AF0;strokeWidth=2;fontFamily=Comic Sans MS;fontSize=15;fontColor=#000000;endArrow=classic;fontStyle=2" parent="WIyWlLk6GJQsqaUBKTNV-1" source="AwBQZsJ90LAnf3Yeg7cW-13" target="AwBQZsJ90LAnf3Yeg7cW-15" edge="1">
          <mxGeometry relative="1" as="geometry" />
        </mxCell>
        <mxCell id="AwBQZsJ90LAnf3Yeg7cW-13" value="&lt;font style=&quot;font-size: 15px;&quot;&gt;&lt;span style=&quot;font-size: 15px;&quot;&gt;scheduledExecutor.schedule(&lt;br style=&quot;font-size: 15px;&quot;&gt;ApplicationDispatcherBootstrap&lt;/span&gt;&lt;/font&gt;&lt;br style=&quot;font-size: 15px;&quot;&gt;&lt;font style=&quot;font-size: 15px;&quot;&gt;（runApplicationEntryPoint)&lt;br style=&quot;font-size: 15px;&quot;&gt;&lt;/font&gt;" style="rounded=1;whiteSpace=wrap;html=1;align=left;fillColor=#FFFFFF;strokeColor=#339AF0;strokeWidth=2;fontFamily=Comic Sans MS;fontSize=15;fontColor=#000000;fontStyle=2" parent="WIyWlLk6GJQsqaUBKTNV-1" vertex="1">
          <mxGeometry x="-72" y="2102" width="250" height="70" as="geometry" />
        </mxCell>
        <mxCell id="AwBQZsJ90LAnf3Yeg7cW-18" value="" style="edgeStyle=orthogonalEdgeStyle;shape=connector;rounded=0;orthogonalLoop=1;jettySize=auto;html=1;labelBackgroundColor=default;strokeColor=#339AF0;strokeWidth=2;fontFamily=Comic Sans MS;fontSize=15;fontColor=#000000;endArrow=classic;fontStyle=2" parent="WIyWlLk6GJQsqaUBKTNV-1" source="AwBQZsJ90LAnf3Yeg7cW-15" target="AwBQZsJ90LAnf3Yeg7cW-17" edge="1">
          <mxGeometry relative="1" as="geometry" />
        </mxCell>
        <mxCell id="AwBQZsJ90LAnf3Yeg7cW-15" value="&lt;font style=&quot;font-size: 15px;&quot;&gt;&lt;span style=&quot;font-size: 15px;&quot;&gt;ClientUtils.executeProgram&lt;/span&gt;&lt;br style=&quot;font-size: 15px;&quot;&gt;&lt;/font&gt;" style="rounded=1;whiteSpace=wrap;html=1;align=left;fillColor=#FFFFFF;strokeColor=#339AF0;strokeWidth=2;fontFamily=Comic Sans MS;fontSize=15;fontColor=#000000;fontStyle=2" parent="WIyWlLk6GJQsqaUBKTNV-1" vertex="1">
          <mxGeometry x="-72" y="2252" width="250" height="70" as="geometry" />
        </mxCell>
        <mxCell id="AwBQZsJ90LAnf3Yeg7cW-17" value="&lt;font style=&quot;font-size: 15px;&quot;&gt;&lt;span style=&quot;font-size: 15px;&quot;&gt;program.invokeInteractiveModeForExecution()&lt;/span&gt;&lt;br style=&quot;font-size: 15px;&quot;&gt;&lt;/font&gt;" style="rounded=1;whiteSpace=wrap;html=1;align=left;fillColor=#FFFFFF;strokeColor=#339AF0;strokeWidth=2;fontFamily=Comic Sans MS;fontSize=15;fontColor=#000000;fontStyle=2" parent="WIyWlLk6GJQsqaUBKTNV-1" vertex="1">
          <mxGeometry x="-72" y="2402" width="250" height="70" as="geometry" />
        </mxCell>
        <mxCell id="AwBQZsJ90LAnf3Yeg7cW-24" value="" style="edgeStyle=orthogonalEdgeStyle;shape=connector;rounded=0;orthogonalLoop=1;jettySize=auto;html=1;labelBackgroundColor=default;strokeColor=#339AF0;strokeWidth=2;fontFamily=Comic Sans MS;fontSize=15;fontColor=#000000;endArrow=classic;fontStyle=2" parent="WIyWlLk6GJQsqaUBKTNV-1" source="AwBQZsJ90LAnf3Yeg7cW-19" target="AwBQZsJ90LAnf3Yeg7cW-23" edge="1">
          <mxGeometry relative="1" as="geometry" />
        </mxCell>
        <mxCell id="AwBQZsJ90LAnf3Yeg7cW-19" value="&lt;span style=&quot;font-size: 15px;&quot;&gt;ApplicationDispatcherBootstrap&lt;br style=&quot;font-size: 15px;&quot;&gt;&lt;/span&gt;&lt;font style=&quot;font-size: 15px;&quot;&gt;getApplicationResult&lt;br style=&quot;font-size: 15px;&quot;&gt;&lt;/font&gt;" style="rounded=1;whiteSpace=wrap;html=1;align=left;fillColor=#FFFFFF;strokeColor=#339AF0;strokeWidth=2;fontFamily=Comic Sans MS;fontSize=15;fontColor=#000000;fontStyle=2" parent="WIyWlLk6GJQsqaUBKTNV-1" vertex="1">
          <mxGeometry x="258" y="2102" width="250" height="70" as="geometry" />
        </mxCell>
        <mxCell id="AwBQZsJ90LAnf3Yeg7cW-23" value="&lt;span style=&quot;font-size: 15px;&quot;&gt;ApplicationDispatcherBootstrap&lt;br style=&quot;font-size: 15px;&quot;&gt;&lt;/span&gt;&lt;font style=&quot;font-size: 15px;&quot;&gt;getApplicationResult&lt;br style=&quot;font-size: 15px;&quot;&gt;&lt;/font&gt;" style="rounded=1;whiteSpace=wrap;html=1;align=left;fillColor=#FFFFFF;strokeColor=#339AF0;strokeWidth=2;fontFamily=Comic Sans MS;fontSize=15;fontColor=#000000;fontStyle=2" parent="WIyWlLk6GJQsqaUBKTNV-1" vertex="1">
          <mxGeometry x="258" y="2252" width="250" height="70" as="geometry" />
        </mxCell>
      </root>
    </mxGraphModel>
  </diagram>
</mxfile>
